<?xml version="1.0" encoding="UTF-8"?>
<svg width="49px" height="49px" viewBox="0 0 49 49" version="1.1" xmlns="http://www.w3.org/2000/svg" xmlns:xlink="http://www.w3.org/1999/xlink">
    <!-- Generator: Sketch 45.2 (43514) - http://www.bohemiancoding.com/sketch -->
    <title>Shape</title>
    <desc>Created with Sketch.</desc>
    <defs></defs>
    <g id="Page-Templates" stroke="none" stroke-width="1" fill="none" fill-rule="evenodd">
        <g id="Desktop-#1-Copy-7" transform="translate(-1125.000000, -962.000000)" fill-rule="nonzero" fill="#36B2BF">
            <path d="M1149.17352,962 C1135.82332,962 1125,972.823318 1125,986.173525 C1125,999.523731 1135.82332,1010.34705 1149.17352,1010.34705 C1162.52373,1010.34705 1173.34705,999.523731 1173.34705,986.173525 C1173.34705,972.823318 1162.52373,962 1149.17352,962 Z M1160.78815,979.686333 L1144.42947,996.04501 C1144.40952,996.065053 1144.38374,996.078273 1144.35582,996.082781 L1144.37376,996.100722 L1137.37005,997.977003 L1139.24633,990.973291 L1139.26427,990.991233 C1139.26878,990.963312 1139.282,990.937532 1139.30204,990.917579 L1140.94508,989.274535 L1155.42087,974.798748 L1155.66072,974.558901 C1155.69674,974.523402 1155.74959,974.511011 1155.79764,974.526796 C1156.36361,974.240664 1157.04938,974.350769 1157.49734,974.799692 L1160.55113,977.853488 C1161.00006,978.301444 1161.11016,978.987217 1160.82403,979.553189 C1160.83755,979.600792 1160.82376,979.651973 1160.78815,979.686333 Z" id="Shape"></path>
        </g>
    </g>
</svg>