<?xml version="1.0" encoding="UTF-8"?>
<svg width="31px" height="33px" viewBox="0 0 31 33" version="1.1" xmlns="http://www.w3.org/2000/svg" xmlns:xlink="http://www.w3.org/1999/xlink">
    <!-- Generator: Sketch 45.2 (43514) - http://www.bohemiancoding.com/sketch -->
    <title>Group</title>
    <desc>Created with Sketch.</desc>
    <defs></defs>
    <g id="Page-Templates" stroke="none" stroke-width="1" fill="none" fill-rule="evenodd">
        <g id="Desktop-#1-Copy-7" transform="translate(-46.000000, -30.000000)" fill="#36B2BF">
            <g id="Group" transform="translate(46.000000, 30.000000)">
                <path d="M27.7690312,2.70419888 C23.9370105,-0.901916985 17.7018208,-0.900882232 13.8705332,2.70419888 C12.8848527,3.63202783 12.1359702,4.71679439 11.6469788,5.92607629 C11.2532931,6.88701735 11.036656,7.90176559 11.0007331,8.96445741 L11,17.8667865 C11,18.0295877 11.0685468,18.1865253 11.191711,18.3027626 C11.3152418,18.418655 11.4812936,18.4828097 11.6550431,18.4834996 L21.1375899,18.4828097 C22.2446019,18.4493527 23.3237552,18.2451613 24.3424261,17.8754094 C25.6312519,17.4135645 26.7837173,16.7092423 27.7690312,15.7824481 C31.6003188,12.177022 31.6014185,6.30996983 27.7690312,2.70419888" id="Fill-4-Copy"></path>
                <path d="M2.66709229,32.9588093 L5.90381919,32.9588093 C7.37702479,32.9588093 8.57091148,31.6467394 8.57091148,30.0286004 L8.57091148,2.93061163 C8.57091148,1.3120699 7.37702479,0 5.90381919,0 L0,0 L0,30.0286004 C0,31.6467394 1.19388669,32.9588093 2.66709229,32.9588093" id="Fill-9-Copy"></path>
            </g>
        </g>
    </g>
</svg>