<svg id="Layer_1" data-name="Layer 1" xmlns="http://www.w3.org/2000/svg" viewBox="0 0 611 610"><defs><style>.cls-1{fill:#36b2bf;}.cls-2{fill:#fff;}</style></defs><title>Calisthenics</title><circle class="cls-1" cx="305.51" cy="305.15" r="304"/><path class="cls-2" d="M462.64,294.7c-25.48,5.59-42.52,21.26-53.56,36.78-9.09-7.19-25.82-16.43-54.48-20.29-23.42-3.16-40.7,1.15-53.08,7.56.36-2.57.69-5.18.87-7.9,3.8-57.33,16-102.13,20.66-117.48l6.77-.38a50,50,0,0,0,1.06,10.79,8.88,8.88,0,0,0,.31,3.19c.74,2.52,7.66,24.64,25.13,26.44a41.55,41.55,0,0,0,4.31.23c25.05,0,39.18-23.37,47-36.24,9.61-15.88,18.72-32.44,15.48-45-3-11.82-18.67-19.38-37.24-27.33l-4-1.7a265.55,265.55,0,0,0-34.91-12.17c-13.57-4.21-31.29-8.35-39.26-4.49-7.57,3.67-14.31,13.49-16.69,17.24-3,2.86-13.52,12.86-26.17,26.34l-2,2.1C247.13,169,217.88,200,187.69,256.08c-29.19,54.16-37.55,138-38.86,153.28A105.49,105.49,0,0,0,139.1,429c-5.91,16.34,5.17,26.22,11.77,32.12,1.34,1.2,2.66,2.36,3.78,3.55,8.45,8.94,27.68,11.31,34.61,11.88,8.59,4,49.7,21.65,121.82,25.84,9.05.53,17.42.76,25.16.76,71,0,88.72-20.09,90.67-22.61a9.17,9.17,0,0,0-1.52-12.79,8.86,8.86,0,0,0-12.54,1.5c-.18.19-19.06,19.89-100.72,15.13-75.64-4.4-116-24.53-116.37-24.72l0,0a9,9,0,0,0-1-.41c-.22-.08-.44-.19-.66-.25s-.26,0-.39-.07a9,9,0,0,0-1.41-.23h0c-9.22-.56-21.51-3.33-24.42-6.41-1.45-1.53-3.14-3.05-4.87-4.61-7.22-6.45-8.31-8.44-6.83-12.54a88.06,88.06,0,0,1,9-17.6c.1-.15.17-.32.26-.47a8.86,8.86,0,0,0,.51-.93c.11-.25.19-.5.28-.75s.2-.56.27-.86.11-.6.16-.91.08-.36.09-.55c.07-.93,7.26-93.32,36.94-148.41,29.07-53.95,57.25-83.84,72.39-99.9l2-2.12c14.31-15.23,26.08-26.2,26.2-26.31l0,0c.07-.07.13-.15.2-.23a8.89,8.89,0,0,0,1.18-1.47c0-.07.11-.12.15-.19,2.59-4.26,7-9.72,9.43-11.24,3.66-.46,15.79,2,26.66,5.35l.2,0,.2.07a250.92,250.92,0,0,1,32.39,11.28l4.1,1.77c6.83,2.92,25,10.7,26.87,15.25,1.62,6.27-9.72,25-13.44,31.16-8.91,14.72-18.82,29-34,27.4-3-.31-6.28-5.3-8.32-10,0-.18-.05-.37-.11-.56a43,43,0,0,1-1.84-12.36,42,42,0,0,1,9.35,5.37,9,9,0,0,0,10.45-14.71c-6.64-4.72-15.64-10.12-23.88-9.1l-28,1.57a9,9,0,0,0-8,6.07c-.75,2.19-18.54,54.41-23.41,127.88a86,86,0,0,1-8.91,33.07c-.32.55-.52.94-.59,1.07s0,.15-.09.22c-10.14,19.43-24.64,29.08-25.51,29.65a9,9,0,1,0,9.7,15.22c1.13-.72,19.75-12.89,32.31-37.49,2.15-3.7,18.08-28.07,60.89-22.32,27.46,3.69,41.49,12.92,47.44,18.09a114.65,114.65,0,0,0-8.52,21.75,9,9,0,0,0,6.55,11,8.88,8.88,0,0,0,2.21.28,9,9,0,0,0,8.74-6.82c.13-.51,13.4-51.24,57.9-61a9,9,0,1,0-3.87-17.62Z"/></svg>