<svg id="Layer_1" data-name="Layer 1" xmlns="http://www.w3.org/2000/svg" viewBox="0 0 611 610"><defs><style>.cls-1{fill:#36b2bf;}.cls-2{fill:none;}.cls-3{fill:#fff;}</style></defs><title>Football</title><circle class="cls-1" cx="305.5" cy="304.5" r="304"/><path class="cls-2" d="M297.32,166.3c-12.45,1.55-25.71,3.89-38.15,8.56-21,7-34.25,16.36-34.25,16.36-46,57.63-4.68,74,38.92,117.58L340.16,294l31.93-84.1L327.7,167.07A132.86,132.86,0,0,0,297.32,166.3Z"/><path class="cls-2" d="M248.28,384.32l6.22-68.51c-38.17-38.17-54.52-81-101.25-42.06a146.61,146.61,0,0,0-7,26.48c-2.34,11.69-2.34,24.92-1.57,37.38,1.57,10.89,3.12,20.22,5.45,27.24C186.74,417,192.2,402.24,248.28,384.32Z"/><path class="cls-2" d="M253.73,394.46c-84.88,27.24-42.85,14.78-60,44.38A230.16,230.16,0,0,0,228,460.64a210.88,210.88,0,0,0,44.38,14c67-2.35,64.65,1.54,52.17-50.62Z"/><path class="cls-2" d="M255.28,164a149.64,149.64,0,0,1,40.49-8.6,104.55,104.55,0,0,1,31.14,0c11.69-10.11,19.49-14.78,25.71-17.11A199.07,199.07,0,0,0,305.13,132a188.23,188.23,0,0,0-68.54,13.24c-10.12,4.67-20.25,9.34-29.59,15.56-1.57,1.59-3.12,2.36-4.67,3.92-.79.79-3.12,2.34-3.89,2.34a298.56,298.56,0,0,1,28.81,9.34A121.28,121.28,0,0,1,255.28,164Z"/><path class="cls-2" d="M143.14,233.25a169.34,169.34,0,0,0-15.6,71.63c0,7.81.79,16.37,1.57,24.15.78,2.33,2.33,4.65,3.92,7.8-.78-13.25-.78-25.71,1.55-38.17a126.3,126.3,0,0,1,9.34-33.48A207.88,207.88,0,0,1,143.14,233.25Z"/><path class="cls-2" d="M412.44,167c-.23-.25-.42-.49-.65-.74A.78.78,0,0,0,412.44,167Z"/><path class="cls-2" d="M414.91,168.62c-.79,0-1.55-.78-2.34-1.55-.05,0-.07,0-.12,0,14.29,15.31,19.63,30.54,21.16,39.73a167.88,167.88,0,0,1,28.81,28.82c5.46,7,9.34,14,13.23,21C469.41,234,457.75,213,442.93,195.1,434.38,185.75,425,176.41,414.91,168.62Z"/><path class="cls-2" d="M428.15,216.9,383,214.55,351,298.66l35,59.95c74-6.22,77.88,7,88-77.06a125.87,125.87,0,0,0-21-39A156.72,156.72,0,0,0,428.15,216.9Z"/><path class="cls-2" d="M385.31,370.32l-49.81,50.59c10.9,42,24.9,56.85,77.86,21,14.8-10.11,27.25-24.13,38.17-38.92a15.78,15.78,0,0,1,3.12-4.67C449.94,349.27,442.93,365.64,385.31,370.32Z"/><path class="cls-3" d="M477.18,234c-9.31-21-23.33-40.49-40.47-57.62a168.25,168.25,0,0,0-59.17-38.15,187.71,187.71,0,0,0-72.41-14.81c-24.92,0-49.07,5.45-72.42,14.82a173.86,173.86,0,0,0-59.2,38.92A178.3,178.3,0,0,0,133.8,234c-10.13,22.59-14.8,46-14.8,70.85,0,24.15,4.67,48.3,14.8,70.1a173.14,173.14,0,0,0,39.7,57.62,200.29,200.29,0,0,0,59.2,38.94,193.43,193.43,0,0,0,72.42,14,187.68,187.68,0,0,0,72.4-14,194.23,194.23,0,0,0,60-38.94A172.75,172.75,0,0,0,477.18,375,179,179,0,0,0,492,304.88C492,280,486.55,256.62,477.18,234Zm-274.86-69.3c1.55-1.55,3.1-2.33,4.67-3.92,9.34-6.22,19.46-10.89,29.59-15.56A188.31,188.31,0,0,1,305.13,132a198.89,198.89,0,0,1,47.49,6.24c-6.22,2.33-14,7-25.71,17.11a104.55,104.55,0,0,0-31.14,0,149.64,149.64,0,0,0-40.49,8.6,121.23,121.23,0,0,0-28,12.44,298.56,298.56,0,0,0-28.81-9.34C199.21,167.07,201.54,165.52,202.33,164.73Zm169.76,45.16L340.16,294l-76.32,14.8c-43.6-43.62-84.89-59.95-38.92-117.58,0,0,13.22-9.36,34.25-16.36,12.44-4.67,25.7-7,38.15-8.56a132.82,132.82,0,0,1,30.37.78ZM134.58,298.66c-2.33,12.47-2.33,24.92-1.55,38.17-1.59-3.14-3.14-5.47-3.92-7.8-.78-7.79-1.57-16.35-1.57-24.15a169.29,169.29,0,0,1,15.6-71.63,208,208,0,0,0,.78,31.93A126.49,126.49,0,0,0,134.58,298.66Zm15.56,66.18c-2.33-7-3.88-16.35-5.45-27.24-.78-12.47-.78-25.7,1.57-37.38a146.61,146.61,0,0,1,7-26.48c46.73-38.94,63.08,3.89,101.25,42.06l-6.22,68.51C192.2,402.24,186.74,417,150.14,364.84ZM272.4,474.65a210.88,210.88,0,0,1-44.38-14,230,230,0,0,1-34.25-21.8c17.11-29.6-24.92-17.15,60-44.38L324.57,424C337.06,476.2,339.38,472.3,272.4,474.65ZM451.53,403c-10.92,14.8-23.37,28.81-38.17,38.92-53,35.82-67,21-77.86-21l49.81-50.59c57.62-4.68,64.63-21,69.33,28A15.83,15.83,0,0,0,451.53,403Zm-65.44-44.4-35-59.95L383,214.54l45.18,2.35a157.08,157.08,0,0,1,24.92,25.7,126,126,0,0,1,21,39C464,365.64,460.08,352.39,386.08,358.61Zm76.33-123a167.73,167.73,0,0,0-28.81-28.82c-1.53-9.19-6.87-24.42-21.16-39.73a.78.78,0,0,1-.65-.74c.24.25.42.49.65.74,0,0,.07,0,.12,0,.79.78,1.55,1.55,2.34,1.55,10.14,7.78,19.47,17.12,28,26.48,14.82,17.9,26.48,38.92,32.72,61.52C471.75,249.59,467.87,242.59,462.41,235.59Z"/></svg>