<svg id="Layer_1" data-name="Layer 1" xmlns="http://www.w3.org/2000/svg" viewBox="0 0 611 610"><defs><style>.cls-1{fill:#36b2bf;}.cls-2{fill:#fff;}</style></defs><title>Golf</title><circle class="cls-1" cx="305.14" cy="305.11" r="304"/><g id="Layer_1-2" data-name="Layer 1"><path class="cls-2" d="M426.33,161.06l-122-40.13a12.8,12.8,0,0,0-12,1.61A13.72,13.72,0,0,0,286.69,133V237.29a12.81,12.81,0,0,0,6.42,11.24c2.41,1.61,4.82,1.61,7.22,1.61s4-.8,6.42-1.61l122-64.2c4.82-2.41,7.22-7.22,7.22-12.84A12.81,12.81,0,0,0,426.33,161.06ZM302.74,233.28V137L415.09,173.9ZM287.49,397a107.56,107.56,0,0,0-16.05.8V127.35a8,8,0,1,0-16.05,0V398.6c-43.34,4.82-81.05,20.87-81.05,44.94,0,30.5,58.58,47.35,113.16,47.35S400.64,474,400.64,443.54,342.06,397,287.49,397Zm0,77.84c-59.39,0-97.11-18.46-97.11-31.3,0-10.43,24.08-24.08,65-28.89v24.88c-8,1.61-13.64,5.62-13.64,9.63,0,6.42,13.64,11.24,29.69,11.24s29.69-4.82,29.69-11.24-13.64-11.24-29.69-11.24h-.8V413.85c5.62,0,10.43-.8,16.05-.8,59.39,0,97.11,18.46,97.11,31.3S346.88,474.84,287.49,474.84Z"/></g></svg>