<svg id="Layer_1" data-name="Layer 1" xmlns="http://www.w3.org/2000/svg" viewBox="0 0 611 610"><defs><style>.cls-1{fill:#36b2bf;}.cls-2{fill:#fff;}</style></defs><title>Scuba Diving</title><circle class="cls-1" cx="306" cy="305" r="304"/><path class="cls-2" d="M422.39,179.41V449.86a34.29,34.29,0,0,1-34.67,34.67H297.57a20.39,20.39,0,0,1-20.8-20.8H262.9a34.68,34.68,0,0,0,34.67,34.67h90.15a48.51,48.51,0,0,0,48.54-48.54V193.28h13.87V449.86a62.57,62.57,0,0,1-62.41,62.41H297.57A48.71,48.71,0,0,1,249,463.73H235.16a62.67,62.67,0,0,0,62.41,62.41h90.15c41.92,0,76.32-34.36,76.28-76.28V179.41Z"/><path class="cls-2" d="M221.29,425.59a6.93,6.93,0,0,0-6.93,6.93,41.61,41.61,0,1,0,83.22,0,6.94,6.94,0,0,0-6.93-6.93Zm7.86,13.82,53.69.16c-3.68,12.8-14.19,20.75-26.87,20.75a27.47,27.47,0,0,1-26.82-20.86Z"/><path class="cls-2" d="M366.92,117a34.67,34.67,0,1,0,34.67,34.67A34.78,34.78,0,0,0,366.92,117Zm0,13.87a20.8,20.8,0,1,1-20.8,20.8A20.7,20.7,0,0,1,366.92,130.87Z"/><path class="cls-2" d="M311.44,182.87a20.8,20.8,0,1,0,20.8,20.8A20.91,20.91,0,0,0,311.44,182.87Zm0,13.87a6.93,6.93,0,1,1-6.93,6.93A6.83,6.83,0,0,1,311.44,196.74Z"/><path class="cls-2" d="M301,82.32a27.74,27.74,0,1,0,27.74,27.74A27.84,27.84,0,0,0,301,82.32Zm0,13.87a13.87,13.87,0,1,1-13.87,13.87A13.77,13.77,0,0,1,301,96.19Z"/><path class="cls-2" d="M158.88,248.75a48.65,48.65,0,0,0-48.54,48.54V338.9a48.65,48.65,0,0,0,48.54,48.54H195.2a48.58,48.58,0,0,0,36.87-17L256,342.64l23.89,27.85a48.53,48.53,0,0,0,36.84,17H353a48.65,48.65,0,0,0,48.54-48.54V297.3A48.65,48.65,0,0,0,353,248.75Zm0,13.87H353a34.57,34.57,0,0,1,34.67,34.67v41.61A34.57,34.57,0,0,1,353,373.58H316.69a34.66,34.66,0,0,1-26.33-12.11l-29.15-34a6.94,6.94,0,0,0-9.78-.76,7,7,0,0,0-.76.76l-29.15,34a34.67,34.67,0,0,1-26.33,12.11H158.88a34.57,34.57,0,0,1-34.67-34.67V297.3A34.57,34.57,0,0,1,158.88,262.62Z"/><path class="cls-2" d="M159.23,276.44a6.93,6.93,0,0,0-4.77,2.09l-13.71,13.74a6.94,6.94,0,1,0,9.6,10l.2-.2,13.73-13.73a6.94,6.94,0,0,0-5.07-11.89Z"/><path class="cls-2" d="M180.11,279.82a6.94,6.94,0,0,0-4.77,2.11l-6.8,6.8a6.94,6.94,0,1,0,9.6,10l.2-.2,6.8-6.8a6.94,6.94,0,0,0-5-11.92Z"/></svg>