<svg id="Layer_1" data-name="Layer 1" xmlns="http://www.w3.org/2000/svg" viewBox="0 0 611 610"><defs><style>.cls-1{fill:#36b2bf;}.cls-2{fill:#fff;}</style></defs><title>Shooting range</title><circle class="cls-1" cx="304.95" cy="305.01" r="304"/><path class="cls-2" d="M304.05,88a9.86,9.86,0,0,0-8.78,10v25c-92.74,4.95-167.18,79.44-172.13,172.25H98.21q-.46,0-.92,0a9.87,9.87,0,0,0,.84,19.72h25c4.94,92.81,79.39,167.3,172.13,172.25v25a9.85,9.85,0,1,0,19.71.28c0-.09,0-.19,0-.28v-25c92.74-4.95,167.18-79.44,172.13-172.25h24.94a9.86,9.86,0,0,0,.29-19.72H487.11c-4.94-92.81-79.39-167.3-172.13-172.25V98a9.85,9.85,0,0,0-10.93-10Zm-8.78,54.69v34.2a9.85,9.85,0,1,0,19.71.28q0-.14,0-.28v-34.2A162.58,162.58,0,0,1,467.4,295.19H433.23q-.46,0-.92,0a9.87,9.87,0,0,0,.84,19.72H467.4A162.58,162.58,0,0,1,315,467.44v-34.2a9.86,9.86,0,1,0-19.71,0v34.2A162.58,162.58,0,0,1,142.86,314.91H177a9.86,9.86,0,0,0,.29-19.72H142.86A162.58,162.58,0,0,1,295.28,142.66Zm8.78,112.93a9.86,9.86,0,0,0-8.78,10v29.58H265.72q-.46,0-.92,0a9.87,9.87,0,0,0,.84,19.72h29.64v29.58a9.85,9.85,0,1,0,19.71.28q0-.14,0-.28V314.91h29.56a9.86,9.86,0,0,0,.29-19.72H315V265.61a9.85,9.85,0,0,0-10.93-10Z"/></svg>