<svg id="Layer_1" data-name="Layer 1" xmlns="http://www.w3.org/2000/svg" viewBox="0 0 611 610"><defs><style>.cls-1{fill:#36b2bf;}.cls-2{fill:#fff;}</style></defs><title>Skateboard</title><circle class="cls-1" cx="305" cy="305.5" r="304"/><path class="cls-2" d="M182.8,323.1a37.6,37.6,0,1,0,37.6,37.6A37.64,37.64,0,0,0,182.8,323.1Zm0,56.4a18.8,18.8,0,1,1,18.8-18.8A18.82,18.82,0,0,1,182.8,379.5Z"/><path class="cls-2" d="M427.21,323.1a37.6,37.6,0,1,0,37.6,37.6A37.64,37.64,0,0,0,427.21,323.1Zm0,56.4A18.8,18.8,0,1,1,446,360.7,18.82,18.82,0,0,1,427.21,379.5Z"/><path class="cls-2" d="M537.29,269.52a9.42,9.42,0,0,0-13.26-.13c-.68.66-17,16.1-49.81,16.1H135.8c-32.64,0-48.95-15.28-49.79-16.08a9.4,9.4,0,0,0-13.25,13.33c.88.88,22,21.55,63,21.55H474.21c41,0,62.16-20.67,63-21.55A9.37,9.37,0,0,0,537.29,269.52Z"/></svg>