<svg id="Layer_1" data-name="Layer 1" xmlns="http://www.w3.org/2000/svg" viewBox="0 0 611 610"><defs><style>.cls-1{fill:#36b2bf;}.cls-2{fill:#fff;}</style></defs><title>Table tennis</title><circle class="cls-1" cx="304.77" cy="304.75" r="304"/><path class="cls-2" d="M358.62,412.56A10.75,10.75,0,0,1,351,409.4L193.63,252a10.78,10.78,0,0,1,15.24-15.24L366.24,394.16a10.78,10.78,0,0,1-7.62,18.4ZM189.69,477.25a26.78,26.78,0,0,1-19-7.88l-30.54-30.54a26.92,26.92,0,0,1,0-38.07l56.25-56.26c-26.26-55.07-15.11-122.08,28.39-165.58,27.4-27.4,66.1-44.32,106.16-46.42,42-2.22,80.08,11.59,107.28,38.8,50.17,50.17,52.38,137.52,5,198.84A10.78,10.78,0,1,1,426.16,357c40.17-52,38.72-128.46-3.22-170.41C400.09,163.7,367.71,152.11,332,154c-34.81,1.82-68.35,16.45-92,40.14A124.55,124.55,0,0,0,219,341.4a10.78,10.78,0,0,1-1.83,12.81L155.35,416a5.35,5.35,0,0,0,0,7.57l30.54,30.54a5.35,5.35,0,0,0,7.57,0l61.81-61.81a10.78,10.78,0,0,1,12.81-1.83,123.79,123.79,0,0,0,85.71,12.44,10.8,10.8,0,0,1,15.57,8.72l.08,1.24a10.79,10.79,0,0,1-8.31,10.5A145.55,145.55,0,0,1,265,413.1l-56.25,56.26A26.78,26.78,0,0,1,189.69,477.25Zm222.84,0a64.68,64.68,0,1,1,64.68-64.68A64.75,64.75,0,0,1,412.52,477.25Zm0-107.81a43.12,43.12,0,1,0,43.12,43.12A43.17,43.17,0,0,0,412.52,369.44Z"/></svg>