<svg id="Layer_1" data-name="Layer 1" xmlns="http://www.w3.org/2000/svg" viewBox="0 0 611 610"><defs><style>.cls-1{fill:#36b2bf;}.cls-2{fill:#fff;}</style></defs><title>Tennis</title><circle class="cls-1" cx="306.05" cy="304.82" r="304"/><g id="Layer_1-2" data-name="Layer 1"><path class="cls-2" d="M187.28,439.75l-7-7a179.23,179.23,0,0,1-1.75-255l7-7,6.11,7.86c28.82,35.81,70.74,56.76,117,56.76,44.54,0,86.46-19.21,114.4-54.14l6.11-7.86,7,7c32.31,33.19,49.78,77.72,49.78,124a180.89,180.89,0,0,1-48,122.26l-7,7-6.11-7.86C396,392.59,355,373.38,311.29,373.38c-46.28,0-89.08,21-117.9,57.64ZM184.66,197c-26.2,29.69-41,67.24-41,107.42,0,41,14.85,79.47,41.92,109.16,31.44-36.68,76.85-56.76,124.88-56.76a163.85,163.85,0,0,1,119.64,51.52,159.3,159.3,0,0,0,37.55-103c0-38.43-14-75.1-38.43-104.8a167.11,167.11,0,0,1-121.39,52.4A169.53,169.53,0,0,1,184.66,197Z"/><path class="cls-2" d="M308.67,252C258,252,210,229.28,178.55,189.11L173.31,183l5.24-5.24c34.06-34.06,79.47-52.4,127.5-52.4a178.3,178.3,0,0,1,130.12,55.89l5.24,5.24-5.24,5.24A165,165,0,0,1,308.67,252ZM196.89,183.87c27.95,32.31,69,50.65,111.78,50.65a147.39,147.39,0,0,0,109.16-48A161.63,161.63,0,0,0,306.05,142C265,142,226.58,156.8,196.89,183.87Z"/><path class="cls-2" d="M306,484.29c-47.16,0-91.7-18.34-125.76-51.52l-5.24-5.24,4.37-6.11c31.44-41,79.47-64.62,131.87-64.62,48.9,0,95.19,21,126.63,58.51l5.24,6.11-5.24,6.11C403,463.33,355.83,484.29,306,484.29ZM198.63,425.78c29.69,26.2,67.24,41,107.42,41a158.49,158.49,0,0,0,112.66-46.28c-27.95-29.69-67.24-46.28-108.29-46.28C267.62,373.38,226.58,392.59,198.63,425.78Z"/></g></svg>