<svg id="Layer_1" data-name="Layer 1" xmlns="http://www.w3.org/2000/svg" viewBox="0 0 611 610"><defs><style>.cls-1{fill:#36b2bf;}.cls-2{fill:#fff;}</style></defs><title>Volleyball</title><circle class="cls-1" cx="305.5" cy="305.5" r="304"/><path class="cls-2" d="M305.5,129.5a176,176,0,1,0,176,176A176,176,0,0,0,305.5,129.5Zm156.85,125a218.31,218.31,0,0,0-192-1.38,191,191,0,0,1-22.26-54.86A206.29,206.29,0,0,1,428,195.12,164.79,164.79,0,0,1,462.35,254.51ZM305.5,140.6a164.18,164.18,0,0,1,100.43,34.11A217.81,217.81,0,0,0,245.84,187,193.68,193.68,0,0,1,243,152.88,164.3,164.3,0,0,1,305.5,140.6Zm-75.1,18.05a219.13,219.13,0,0,0,29.13,98.13A210.7,210.7,0,0,0,298.93,306a207.29,207.29,0,0,1-16.06,46.21,206.66,206.66,0,0,1-89.2-167.83A165.06,165.06,0,0,1,230.4,158.66Zm-47.48,36.56A217.39,217.39,0,0,0,277.7,362.09a204.8,204.8,0,0,1-35.89,47A206.22,206.22,0,0,1,148.65,254.5,164.76,164.76,0,0,1,182.91,195.21ZM140.6,305.5A166.37,166.37,0,0,1,142,283.88a217.72,217.72,0,0,0,91.4,133A206.6,206.6,0,0,1,206.07,437,164.63,164.63,0,0,1,140.6,305.5Zm75.3,138.45A216.54,216.54,0,0,0,309.16,311a200.53,200.53,0,0,1,48.08-9.43A206.19,206.19,0,0,1,256.42,463,164.09,164.09,0,0,1,215.9,443.95Zm123.87,22.88a166.08,166.08,0,0,1-68.53,0,217.41,217.41,0,0,0,97.17-165.66h2.26A195.27,195.27,0,0,1,427,309.43,206.21,206.21,0,0,1,339.77,466.82Zm28.7-8.89a217.73,217.73,0,0,0,69.46-144.87,193.55,193.55,0,0,1,31,14.6A165.08,165.08,0,0,1,368.47,457.94Zm-60-158.33a205.31,205.31,0,0,1-32.11-37,207.08,207.08,0,0,1,190,6.69,165.18,165.18,0,0,1,4,36.25c0,3.39-.11,6.75-.32,10.08A206.82,206.82,0,0,0,308.52,299.6Z"/></svg>