<svg id="Layer_1" data-name="Layer 1" xmlns="http://www.w3.org/2000/svg" viewBox="0 0 611 610"><defs><style>.cls-1{fill:#36b2bf;}.cls-2{fill:#fff;}</style></defs><title>Windsurfing</title><circle class="cls-1" cx="306" cy="305" r="304"/><path class="cls-2" d="M387.84,388.49a32.38,32.38,0,0,0,2.8-13.07c-.08-.93-8-93.11-5.7-130.5,2-32.13,13-96.18,16.18-114.34l1.9-.31L401.15,119l-70.46,11.74-1.32,1.43c-49.4,53.15-72,132.22-82.3,189.21-4.48,24.8-7,47.63-8.54,66.16a582.51,582.51,0,0,0-101.45,26.68,14,14,0,0,0,0,26.23C157.85,448.08,231.33,473,305,473c85.68,0,147.84-22.24,150.44-23.19l3.76-1.36V406.19l-3.76-1.36C454.3,404.41,428.71,395.22,387.84,388.49ZM336.43,141.37l52.75-8.79c-1.51,8.68-3.91,22.77-6.4,38.59l-44.14,4.91,1.26,11.35L381,182.87c-2.31,15.28-4.52,31.27-6,45l-47.77,5.31,1.26,11.35,45.41-5c-.13,1.63-.25,3.22-.34,4.72-.67,10.59-.55,25.18,0,40.79l-63.28,5.27.95,11.38L374,296.43c.7,15.92,1.71,32.15,2.66,45.77l-77.71,5.18.76,11.4,77.78-5.19c.94,12.67,1.7,21.34,1.79,22.33a20,20,0,0,1-17.65,19.89L248.53,409.39a680.56,680.56,0,0,1,9.82-86.19C268.27,268.29,289.87,192.44,336.43,141.37Zm111.35,299C433.11,445.1,377,461.59,305,461.59c-71.78,0-143.65-24.39-164-31.87a2.56,2.56,0,0,1,0-4.79,571.7,571.7,0,0,1,96.64-25.67c-1.32,20.66-1.2,33.59-1.2,33.84l11.42-.14c0-.14,0-4.52.18-12L363,407.16a31,31,0,0,0,17.52-8.27c33.86,5.2,58.33,12.49,67.31,15.4v26.05Z"/><rect class="cls-2" x="104.96" y="179.46" width="102.8" height="11.42"/><rect class="cls-2" x="219.18" y="179.46" width="11.42" height="11.42"/><rect class="cls-2" x="127.8" y="202.3" width="57.11" height="11.42"/><rect class="cls-2" x="196.33" y="202.3" width="11.42" height="11.42"/><rect class="cls-2" x="396.38" y="255.99" width="62.82" height="11.42"/><rect class="cls-2" x="470.62" y="255.99" width="11.42" height="11.42"/><rect class="cls-2" x="407.8" y="284.55" width="39.98" height="11.42"/><rect class="cls-2" x="459.2" y="284.55" width="11.42" height="11.42"/><path class="cls-2" d="M316,218.26l-10.5-4.49c-17,39.65-30.23,86.79-37.35,132.73l11.29,1.75C286.38,303.22,299.36,257.06,316,218.26Z"/><path class="cls-2" d="M277.78,359.53,266.46,358c-.52,3.95-1,7.82-1.4,11.55l11.35,1.22C276.8,367.18,277.27,363.39,277.78,359.53Z"/></svg>